<?xml version="1.0" encoding="utf-8"?>
<!-- Generator: Adobe Illustrator 25.2.0, SVG Export Plug-In . SVG Version: 6.00 Build 0)  -->
<svg version="1.1" id="Layer_1" xmlns="http://www.w3.org/2000/svg" xmlns:xlink="http://www.w3.org/1999/xlink" x="0px" y="0px"
	 viewBox="0 0 835.8 242.2" style="enable-background:new 0 0 835.8 242.2;" xml:space="preserve">
<style type="text/css">
	.st0{fill:#3500F8;}
</style>
<g>
	<path class="st0" d="M13.3,201.5H0v-8.6h36.7v8.6H23.1v40.2h-9.8V201.5z"/>
	<path class="st0" d="M38.7,192.9h31.2v8.6H48.2v11.8h17.3v8.5H48.2v11.4h23.1v8.6H38.7V192.9z"/>
	<path class="st0" d="M74.6,192.9h9.8V214h19.9v-21.1h9.7v48.8h-9.7v-19.1H84.4v19.1h-9.8V192.9z"/>
	<path class="st0" d="M119.5,192.9h31.2v8.6H129v11.8h17.3v8.5H129v11.4h23.1v8.6h-32.7V192.9z"/>
	<path class="st0" d="M155.4,192.9h18.5c19.6-1.5,23,25.9,6.8,30.9l12.2,17.9h-11.5L170.6,225H165v16.7h-9.6V192.9z M172,216.5
		c11.8,0.7,11.9-15.5,0.4-15c0,0-7.4,0-7.4,0v15H172z"/>
	<path class="st0" d="M209.2,192.9h9.4l18.2,48.8h-10.1l-3.4-9.8h-18.7l-3.3,9.8h-10.1L209.2,192.9z M220.5,223.7l-6.5-19.1h-0.1
		l-6.5,19.1H220.5z"/>
	<path class="st0" d="M237.9,192.9h9.5l21.9,32.9h0.1v-32.9h9.6v48.8h-9.7l-21.7-32.3h-0.1v32.3h-9.6V192.9z"/>
	<path class="st0" d="M295,217.5c-1.8-22.9,29.4-34.6,44.2-15.7l-7.2,6c-8.6-11.4-27.6-6.2-27,9.8c-0.8,15.2,18.7,20.9,27.1,9.4
		l7.1,6.1C326.6,249.9,293.9,242.7,295,217.5z"/>
	<path class="st0" d="M339.5,217.3c-1-32.8,50.4-33.3,49.7,0C389.9,250.6,338.6,250.1,339.5,217.3z M379.1,217.3
		c0.2-21.3-30-20.7-29.6,0C349.1,238,379.4,238.6,379.1,217.3z"/>
	<path class="st0" d="M392.8,192.9h9.7l15,27.8h0.1l15-27.8h9.7v48.8h-9.6v-30.2h-0.1l-11.9,21h-6.3l-11.8-21h-0.1v30.3h-9.6V192.9z
		"/>
	<path class="st0" d="M447.8,192.9h18.1c24-0.9,21.5,34.5-1,32.1c0,0-7.6,0-7.6,0v16.7h-9.6V192.9z M463.9,216.5
		c11.9,0.8,11.9-15.5,0.5-15c0,0-7,0-7,0v15H463.9z"/>
	<path class="st0" d="M495.2,192.9h9.4l18.2,48.8h-10.1l-3.4-9.8h-18.7l-3.3,9.8h-10.1L495.2,192.9z M506.4,223.7l-6.5-19.1h-0.1
		l-6.5,19.1H506.4z"/>
	<path class="st0" d="M523.8,192.9h9.5l21.9,32.9h0.1v-32.9h9.6v48.8h-9.7l-21.7-32.3h-0.1v32.3h-9.6V192.9z"/>
	<path class="st0" d="M581.9,220.3l-16.2-27.4h11.1l10,17.7h0.1l9.8-17.7h11.2l-16.2,27.4v21.5h-9.8V220.3z"/>
	<path class="st0" d="M619.2,217.4c-1.6-23.2,28.7-33.6,43.9-16.8l-6.8,5.9c-9-9.5-27.6-5.4-27,10.9c-0.7,13.4,14,20.3,24.6,13.2
		v-7.2H643v-8.3h20.4v21C647.9,248.4,618,242,619.2,217.4z"/>
	<path class="st0" d="M667.6,192.9h18.5c19.6-1.5,23,25.9,6.8,30.9l12.2,17.9h-11.5L682.7,225h-5.6v16.7h-9.6V192.9z M684.1,216.5
		c11.8,0.7,11.9-15.5,0.4-15c0,0-7.4,0-7.4,0v15H684.1z"/>
	<path class="st0" d="M703.8,217.3c-1-32.8,50.4-33.3,49.7,0C754.2,250.6,702.9,250.1,703.8,217.3z M743.4,217.3
		c0.2-21.3-30-20.7-29.6,0C713.4,238,743.7,238.6,743.4,217.3z"/>
	<path class="st0" d="M756.4,221.5v-28.6h9.7c1.7,9.4-5.9,40.6,10,40.4c15.9,0.7,8.7-31.1,10.2-40.4h9.7v28.6
		C797.9,248.7,754.8,249.6,756.4,221.5z"/>
	<path class="st0" d="M800.7,192.9h18.1c24-0.9,21.5,34.5-1,32.1c0,0-7.6,0-7.6,0v16.7h-9.6V192.9z M816.8,216.5
		c11.9,0.8,11.9-15.5,0.5-15c0,0-7,0-7,0v15H816.8z"/>
</g>
<path class="st0" d="M547.8,69.7v25.4h33.4v21.8c-107.5,49.3-93.2-141.6,5.2-75.3l19.7-19.3C558.1-25,470.5,7.6,475.2,76.6
	c-2.1,14.3-2.6,16.1-12,29c-9,11.1-22,18.9-37.6,18.9c-89-8.8-31.3-145.3,35.7-79.1l20.4-19.9C464.9,7.1,443.1-0.9,421.3,0.1
	l0.1-0.1C375.6,0,268.6,0,224,0v26.2h56.4v128.1l29.5-28.7V26.2H366c-60.8,87.1,52.1,173.4,118.7,98l-0.2-0.2c1-1.1,1.9-2.1,2.8-3.2
	c16.8,27.5,56.4,37,88.4,28.7l34.1-32.9V69.7H547.8z"/>
</svg>
